<svg width="100" height="150" viewBox="0 0 100 150" fill="none" xmlns="http://www.w3.org/2000/svg">
<rect width="100" height="150" rx="1" fill="#E4B328"/>
<circle cx="21" cy="17" r="2" fill="#BC9014"/>
<ellipse cx="10.5" cy="45.5" rx="2.5" ry="3.5" fill="#BC9014"/>
<ellipse cx="88" cy="144" rx="2" ry="3" fill="#BC9014"/>
<ellipse cx="17.5" cy="133.5" rx="2.5" ry="3.5" fill="#BC9014"/>
<circle cx="74" cy="18" r="2" fill="#BC9014"/>
<circle cx="23" cy="145" r="2" fill="#BC9014"/>
<circle cx="6" cy="6" r="2" fill="#BC9014"/>
<circle cx="66" cy="141" r="2" fill="#BC9014"/>
<circle cx="43" cy="115" r="2" fill="#BC9014"/>
<circle cx="70" cy="60" r="2" fill="#BC9014"/>
<circle cx="53" cy="39" r="2" fill="#BC9014"/>
<ellipse cx="66.5" cy="91.5" rx="2.5" ry="3.5" fill="#BC9014"/>
<ellipse cx="30.5" cy="11.5" rx="2.5" ry="3.5" fill="#BC9014"/>
<ellipse cx="85.5" cy="106.5" rx="2.5" ry="3.5" fill="#BC9014"/>
<ellipse cx="76.5" cy="47.5" rx="2.5" ry="3.5" fill="#BC9014"/>
<ellipse cx="52.5" cy="77.5" rx="2.5" ry="3.5" fill="#BC9014"/>
<ellipse cx="29.5" cy="94.5" rx="2.5" ry="3.5" fill="#BC9014"/>
<circle cx="22.5" cy="69.5" r="2.5" fill="#BC9014"/>
<ellipse cx="39.5" cy="83" rx="1.5" ry="2" fill="#BC9014"/>
<circle cx="70.5" cy="74.5" r="1.5" fill="#BC9014"/>
<ellipse cx="30" cy="110.5" rx="2" ry="2.5" fill="#BC9014"/>
<ellipse cx="41" cy="67.5" rx="2" ry="2.5" fill="#BC9014"/>
<ellipse cx="74" cy="37.5" rx="2" ry="2.5" fill="#BC9014"/>
<ellipse cx="85" cy="18.5" rx="2" ry="2.5" fill="#BC9014"/>
<ellipse cx="95" cy="71.5" rx="2" ry="2.5" fill="#BC9014"/>
<ellipse cx="4" cy="76.5" rx="2" ry="2.5" fill="#BC9014"/>
<ellipse cx="52" cy="141.5" rx="2" ry="2.5" fill="#BC9014"/>
<ellipse cx="74" cy="107.5" rx="2" ry="2.5" fill="#BC9014"/>
<ellipse cx="32" cy="120.5" rx="2" ry="2.5" fill="#BC9014"/>
<ellipse cx="63" cy="127.5" rx="2" ry="2.5" fill="#BC9014"/>
<ellipse cx="8" cy="125.5" rx="2" ry="2.5" fill="#BC9014"/>
<ellipse cx="30" cy="80.5" rx="2" ry="2.5" fill="#BC9014"/>
<ellipse cx="60" cy="51.5" rx="2" ry="2.5" fill="#BC9014"/>
<ellipse cx="82" cy="78.5" rx="2" ry="2.5" fill="#BC9014"/>
<ellipse cx="83" cy="57.5" rx="2" ry="2.5" fill="#BC9014"/>
<ellipse cx="16" cy="93.5" rx="2" ry="2.5" fill="#BC9014"/>
<ellipse cx="40" cy="20.5" rx="2" ry="2.5" fill="#BC9014"/>
<ellipse cx="37" cy="48.5" rx="2" ry="2.5" fill="#BC9014"/>
<ellipse cx="24" cy="42.5" rx="2" ry="2.5" fill="#BC9014"/>
<ellipse cx="45" cy="48.5" rx="1" ry="1.5" fill="#BC9014"/>
<ellipse cx="59" cy="73.5" rx="1" ry="1.5" fill="#BC9014"/>
<ellipse cx="29" cy="73.5" rx="1" ry="1.5" fill="#BC9014"/>
<ellipse cx="46" cy="23.5" rx="1" ry="1.5" fill="#BC9014"/>
<ellipse cx="50" cy="119.5" rx="1" ry="1.5" fill="#BC9014"/>
<ellipse cx="93" cy="137.5" rx="1" ry="1.5" fill="#BC9014"/>
<ellipse cx="48" cy="69.5" rx="1" ry="1.5" fill="#BC9014"/>
<ellipse cx="44" cy="145.5" rx="1" ry="1.5" fill="#BC9014"/>
<ellipse cx="59" cy="145.5" rx="1" ry="1.5" fill="#BC9014"/>
<ellipse cx="14" cy="143.5" rx="1" ry="1.5" fill="#BC9014"/>
<ellipse cx="5" cy="110.5" rx="1" ry="1.5" fill="#BC9014"/>
<ellipse cx="20" cy="4.5" rx="1" ry="1.5" fill="#BC9014"/>
<ellipse cx="95" cy="112.5" rx="1" ry="1.5" fill="#BC9014"/>
<ellipse cx="79" cy="135.5" rx="1" ry="1.5" fill="#BC9014"/>
<ellipse cx="86" cy="119.5" rx="1" ry="1.5" fill="#BC9014"/>
<ellipse cx="5" cy="91.5" rx="1" ry="1.5" fill="#BC9014"/>
<ellipse cx="66" cy="24.5" rx="1" ry="1.5" fill="#BC9014"/>
<ellipse cx="64" cy="65.5" rx="1" ry="1.5" fill="#BC9014"/>
<ellipse cx="91" cy="45.5" rx="1" ry="1.5" fill="#BC9014"/>
<ellipse cx="95" cy="23.5" rx="1" ry="1.5" fill="#BC9014"/>
<ellipse cx="39" cy="100.5" rx="1" ry="1.5" fill="#BC9014"/>
<ellipse cx="33" cy="63.5" rx="1" ry="1.5" fill="#BC9014"/>
<ellipse cx="16" cy="55.5" rx="1" ry="1.5" fill="#BC9014"/>
<ellipse cx="42" cy="76.5" rx="1" ry="1.5" fill="#BC9014"/>
<ellipse cx="90" cy="10.5" rx="1" ry="1.5" fill="#BC9014"/>
<ellipse cx="63" cy="118.5" rx="1" ry="1.5" fill="#BC9014"/>
<ellipse cx="59" cy="86.5" rx="1" ry="1.5" fill="#BC9014"/>
<ellipse cx="49" cy="87.5" rx="1" ry="1.5" fill="#BC9014"/>
<ellipse cx="64.5" cy="41" rx="1.5" ry="2" fill="#BC9014"/>
<ellipse cx="91.5" cy="58" rx="1.5" ry="2" fill="#BC9014"/>
<ellipse cx="49" cy="11.5" rx="1" ry="1.5" fill="#BC9014"/>
<circle cx="49.5" cy="131.5" r="1.5" fill="#BC9014"/>
<circle cx="11" cy="105" r="2" fill="#BC9014"/>
<ellipse cx="32" cy="33.5" rx="2" ry="2.5" fill="#BC9014"/>
<ellipse cx="89" cy="84.5" rx="2" ry="2.5" fill="#BC9014"/>
<ellipse cx="88" cy="33.5" rx="2" ry="2.5" fill="#BC9014"/>
<ellipse cx="6" cy="59.5" rx="2" ry="2.5" fill="#BC9014"/>
<ellipse cx="49" cy="58.5" rx="2" ry="2.5" fill="#BC9014"/>
<ellipse cx="63" cy="106.5" rx="2" ry="2.5" fill="#BC9014"/>
<ellipse cx="97" cy="97.5" rx="2" ry="2.5" fill="#BC9014"/>
<ellipse cx="7" cy="31.5" rx="2" ry="2.5" fill="#BC9014"/>
<ellipse cx="4" cy="141.5" rx="2" ry="2.5" fill="#BC9014"/>
<ellipse cx="43" cy="4.5" rx="2" ry="2.5" fill="#BC9014"/>
<ellipse cx="95" cy="127.5" rx="2" ry="2.5" fill="#BC9014"/>
<ellipse cx="88" cy="33.5" rx="2" ry="2.5" fill="#BC9014"/>
<ellipse cx="36" cy="141.5" rx="2" ry="2.5" fill="#BC9014"/>
<ellipse cx="80" cy="93.5" rx="2" ry="2.5" fill="#BC9014"/>
<ellipse cx="82" cy="6.5" rx="2" ry="2.5" fill="#BC9014"/>
<ellipse cx="76" cy="126.5" rx="2" ry="2.5" fill="#BC9014"/>
<circle cx="26.5" cy="54.5" r="1.5" fill="#BC9014"/>
<circle cx="47.5" cy="29.5" r="1.5" fill="#BC9014"/>
<circle cx="21" cy="32" r="1" fill="#BC9014"/>
<circle cx="73" cy="30" r="1" fill="#BC9014"/>
<circle cx="16" cy="118" r="1" fill="#BC9014"/>
<circle cx="35" cy="130" r="1" fill="#BC9014"/>
<circle cx="83" cy="72" r="1" fill="#BC9014"/>
<circle cx="93" cy="63" r="1" fill="#BC9014"/>
<circle cx="43" cy="39" r="1" fill="#BC9014"/>
<circle cx="81" cy="27" r="1" fill="#BC9014"/>
<circle cx="77" cy="116" r="1" fill="#BC9014"/>
<circle cx="21" cy="110" r="1" fill="#BC9014"/>
<circle cx="76" cy="146" r="1" fill="#BC9014"/>
<circle cx="37" cy="93" r="1" fill="#BC9014"/>
<circle cx="84" cy="44" r="1" fill="#BC9014"/>
<circle cx="76" cy="83" r="1" fill="#BC9014"/>
<circle cx="11" cy="68" r="1" fill="#BC9014"/>
<circle cx="64" cy="9" r="1" fill="#BC9014"/>
<circle cx="48" cy="96" r="1" fill="#BC9014"/>
<circle cx="10" cy="21" r="1" fill="#BC9014"/>
<ellipse cx="58" cy="22.5" rx="2" ry="2.5" fill="#BC9014"/>
<ellipse cx="13" cy="82" rx="2" ry="3" fill="#BC9014"/>
<ellipse cx="48.5" cy="108" rx="1.5" ry="3" fill="#BC9014"/>
<ellipse cx="78.5" cy="63" rx="1.5" ry="3" fill="#BC9014"/>
<ellipse cx="95.5" cy="37" rx="1.5" ry="3" fill="#BC9014"/>
<ellipse cx="14.5" cy="25" rx="1.5" ry="3" fill="#BC9014"/>
<ellipse cx="85.5" cy="130" rx="1.5" ry="3" fill="#BC9014"/>
<ellipse cx="61.5" cy="32" rx="1.5" ry="3" fill="#BC9014"/>
<ellipse cx="38.5" cy="57" rx="1.5" ry="3" fill="#BC9014"/>
<ellipse cx="23.5" cy="121" rx="1.5" ry="3" fill="#BC9014"/>
<ellipse cx="56.5" cy="5" rx="1.5" ry="3" fill="#BC9014"/>
<ellipse cx="56.5" cy="95" rx="1.5" ry="3" fill="#BC9014"/>
<circle cx="56" cy="66" r="2" fill="#BC9014"/>
<circle cx="64" cy="79" r="2" fill="#BC9014"/>
</svg>
